HIERARCHY
ROOT Hips
{
 OFFSET 0.000000 0.000000 0.000000
 CHANNELS 6 Xposition Yposition Zposition Yrotation Xrotation Zrotation
 JOINT Chest
 {
  OFFSET 0.000000 10.388337 0.005184
  CHANNELS 3 Yrotation Xrotation Zrotation
  JOINT Chest2
  {
   OFFSET 0.000000 10.458247 -0.010579
   CHANNELS 3 Yrotation Xrotation Zrotation
   JOINT Chest3
   {
    OFFSET 0.000000 10.415828 0.000000
    CHANNELS 3 Yrotation Xrotation Zrotation
    JOINT Chest4
    {
     OFFSET 0.000000 10.405206 0.000000
     CHANNELS 3 Yrotation Xrotation Zrotation
     JOINT Neck
     {
      OFFSET 0.000000 15.720090 0.000000
      CHANNELS 3 Yrotation Xrotation Zrotation
      JOINT Head
      {
       OFFSET 0.000000 9.732643 -0.022378
       CHANNELS 3 Yrotation Xrotation Zrotation
       End Site
       {
        OFFSET 0.000000 18.603619 -0.011814
       }
      }
     }
     JOINT RightCollar
     {
      OFFSET -3.167735 10.388953 0.000000
      CHANNELS 3 Yrotation Xrotation Zrotation
      JOINT RightShoulder
      {
       OFFSET -14.584825 0.000000 0.000000
       CHANNELS 3 Yrotation Xrotation Zrotation
       JOINT RightElbow
       {
        OFFSET 0.000000 -31.921689 0.000000
        CHANNELS 3 Yrotation Xrotation Zrotation
        JOINT RightWrist
        {
         OFFSET 0.000000 -25.835217 0.000000
         CHANNELS 3 Yrotation Xrotation Zrotation
         End Site
         {
          OFFSET 0.000000 -19.128920 0.000000
         }
        }
       }
      }
     }
     JOINT LeftCollar
     {
      OFFSET 3.167735 10.388953 0.000000
      CHANNELS 3 Yrotation Xrotation Zrotation
      JOINT LeftShoulder
      {
       OFFSET 14.584825 0.000000 0.000000
       CHANNELS 3 Yrotation Xrotation Zrotation
       JOINT LeftElbow
       {
        OFFSET 0.000000 -31.921689 0.000000
        CHANNELS 3 Yrotation Xrotation Zrotation
        JOINT LeftWrist
        {
         OFFSET 0.000000 -25.835217 0.000000
         CHANNELS 3 Yrotation Xrotation Zrotation
         End Site
         {
          OFFSET 0.000000 -19.128920 0.000000
         }
        }
       }
      }
     }
    }
   }
  }
 }
 JOINT RightHip
 {
  OFFSET -8.403278 -0.025659 -0.002592
  CHANNELS 3 Yrotation Xrotation Zrotation
  JOINT RightKnee
  {
   OFFSET 0.000000 -44.040977 0.002477
   CHANNELS 3 Yrotation Xrotation Zrotation
   JOINT RightAnkle
   {
    OFFSET 0.000000 -42.951162 0.004189
    CHANNELS 3 Yrotation Xrotation Zrotation
    JOINT RightToe
    {
     OFFSET 0.000000 -5.494238 12.197485
     CHANNELS 3 Yrotation Xrotation Zrotation
     End Site
     {
      OFFSET 0.000000 -1.538716 6.371628
     }
    }
   }
  }
 }
 JOINT LeftHip
 {
  OFFSET 8.403278 -0.025659 -0.002592
  CHANNELS 3 Yrotation Xrotation Zrotation
  JOINT LeftKnee
  {
   OFFSET 0.000000 -44.040977 0.002477
   CHANNELS 3 Yrotation Xrotation Zrotation
   JOINT LeftAnkle
   {
    OFFSET 0.000000 -42.951162 0.004189
    CHANNELS 3 Yrotation Xrotation Zrotation
    JOINT LeftToe
    {
     OFFSET 0.000000 -5.494238 12.197485
     CHANNELS 3 Yrotation Xrotation Zrotation
     End Site
     {
      OFFSET 0.000000 -1.538716 6.371628
     }
    }
   }
  }
 }
}
MOTION
Frames: 11
Frame Time: 0.008333
0.000000 92.319940 0.000000 0.000000 -5.767889 0.000000 0.000000 11.653876 0.000000 0.000000 -5.885988 0.000000 0.000000 -0.000000 0.000000 0.000000 -0.000000 0.000000 0.000000 12.528808 0.000000 0.000000 0.711711 0.000000 0.000000 -0.000000 0.000000 0.000000 0.000000 -90.000000 0.000000 -2.309063 0.000000 0.000000 2.309063 0.000000 0.000000 -0.000000 0.000000 0.000000 -0.000000 90.000000 0.000000 -2.309063 0.000000 0.000000 2.309063 0.000000 0.000000 8.520374 0.000000 0.000000 1.905768 0.000000 -0.000000 -4.658254 0.000000 0.000000 -0.000000 0.000000 0.000000 8.520374 0.000000 0.000000 1.905768 0.000000 -0.000000 -4.658254 0.000000 0.000000 -0.000000 0.000000
-301.237468 92.584020 340.380905 135.704268 -2.110716 -0.071144 -2.235216 5.452446 -0.958464 -0.080610 0.199423 -0.042623 -0.142376 0.351936 -0.075419 -2.192473 5.263570 -1.227653 -0.208970 18.379029 9.489903 -3.389549 -1.111509 17.480510 0.835957 2.249747 -0.012751 -2.395277 2.999559 -8.070790 1.904626 -14.639574 5.834010 -1.793385 2.059633 1.580396 1.449042 1.799757 1.215009 -4.462123 -3.589215 6.010953 -4.200948 -3.170240 -8.125536 -0.160196 -2.538986 1.614087 -11.778196 -8.487416 -1.681389 -4.351641 15.589304 -1.447033 -7.239239 -4.524877 1.386108 0.077719 0.474192 0.000368 -5.862489 10.386849 -4.863859 17.058369 3.377228 -0.441167 -6.369682 -12.705691 1.065768 -0.059080 0.215674 0.418288
-301.169152 92.559121 340.299077 135.864100 -1.957923 -0.016142 -2.267029 5.449420 -1.014744 -0.081672 0.198898 -0.043066 -0.144251 0.351009 -0.076203 -2.221060 5.249083 -1.240403 -0.215409 18.340488 9.505401 -3.411197 -1.179930 17.514312 0.811462 2.269924 -0.015079 -2.428837 3.024683 -8.091148 1.867948 -14.733674 5.892181 -1.799997 2.056765 1.574033 1.485760 1.800454 1.228647 -4.346269 -3.421343 5.943287 -4.161605 -3.176985 -8.076820 -0.152050 -2.547386 1.637129 -11.820739 -8.740657 -1.741844 -4.440953 15.941023 -1.443294 -7.245557 -4.796843 1.419672 0.078634 0.433475 0.012182 -5.918321 10.292774 -4.871921 17.118518 3.425726 -0.453280 -6.578996 -12.956703 0.883067 -0.060339 0.257869 0.480038
-301.081023 92.529059 340.204639 136.043423 -1.763977 0.013792 -2.304857 5.430379 -1.050912 -0.082817 0.197590 -0.043475 -0.146280 0.348717 -0.076930 -2.255329 5.222284 -1.254139 -0.219894 18.298779 9.523995 -3.430677 -1.254123 17.553473 0.777168 2.277324 -0.011744 -2.461863 3.056986 -8.108055 1.838816 -14.823880 5.947253 -1.805096 2.057762 1.570296 1.520325 1.792152 1.258897 -4.219266 -3.232382 5.865850 -4.112008 -3.188720 -8.032648 -0.142609 -2.556543 1.657446 -11.897016 -9.019753 -1.754978 -4.517284 16.307325 -1.437416 -7.253304 -5.139570 1.422940 0.076620 0.428591 0.037597 -5.954347 10.188873 -4.843816 17.200220 3.456175 -0.468082 -6.832287 -13.231125 0.686994 -0.061925 0.303127 0.536665
-300.976635 92.494543 340.093466 136.236954 -1.541105 0.043490 -2.349779 5.401126 -1.090900 -0.084054 0.195729 -0.043806 -0.148475 0.345460 -0.077521 -2.294542 5.186513 -1.267174 -0.222352 18.253768 9.544282 -3.447455 -1.334505 17.595417 0.738426 2.274953 -0.008813 -2.502592 3.094895 -8.120019 1.820547 -14.909260 6.001751 -1.808557 2.059448 1.566935 1.555737 1.781708 1.301611 -4.084848 -3.030010 5.781695 -4.050438 -3.203698 -7.997771 -0.133439 -2.564484 1.676766 -12.006421 -9.311219 -1.745358 -4.576601 16.665225 -1.430539 -7.252461 -5.514451 1.389861 0.072103 0.434255 0.076449 -5.956240 10.085426 -4.806148 17.279179 3.468659 -0.487129 -7.120942 -13.532796 0.486364 -0.062681 0.354781 0.585527
-300.857356 92.456322 339.964302 136.439514 -1.301203 0.074483 -2.401309 5.365211 -1.134080 -0.085414 0.193562 -0.044022 -0.150891 0.341667 -0.077911 -2.338384 5.145335 -1.277939 -0.223018 18.206265 9.564027 -3.461167 -1.419800 17.636049 0.702050 2.267445 -0.010533 -2.559183 3.138912 -8.127599 1.814771 -14.991569 6.058869 -1.809487 2.059752 1.559021 1.598394 1.771567 1.347211 -3.950662 -2.816295 5.696321 -3.976595 -3.216416 -7.972862 -0.120859 -2.576216 1.697372 -12.147321 -9.606378 -1.710938 -4.622960 17.013847 -1.433895 -7.224280 -5.911859 1.326633 0.065389 0.442558 0.122850 -5.916280 9.994629 -4.760196 17.332480 3.461553 -0.514108 -7.431902 -13.846987 0.289817 -0.062070 0.402165 0.623561
-300.724286 92.414999 339.815796 136.646118 -1.057225 0.105786 -2.456462 5.326651 -1.178115 -0.086863 0.191402 -0.044140 -0.153462 0.337886 -0.078128 -2.384520 5.103625 -1.286094 -0.222984 18.156553 9.582442 -3.473525 -1.509417 17.674248 0.668742 2.257655 -0.018201 -2.634486 3.189795 -8.129307 1.826007 -15.073563 6.116418 -1.810448 2.061713 1.545886 1.651784 1.761571 1.391826 -3.826916 -2.592640 5.613100 -3.889365 -3.220185 -7.955874 -0.103205 -2.595716 1.715035 -12.312036 -9.894132 -1.652559 -4.655990 17.352464 -1.451742 -7.161893 -6.319198 1.243476 0.056928 0.444567 0.168843 -5.838959 9.925491 -4.708255 17.352540 3.439964 -0.549486 -7.748512 -14.163942 0.104080 -0.059985 0.436971 0.648503
-300.578916 92.370914 339.647333 136.856056 -0.817194 0.136216 -2.511138 5.287405 -1.218528 -0.088282 0.189419 -0.044266 -0.155982 0.334414 -0.078359 -2.429204 5.064348 -1.293978 -0.225087 18.104101 9.599185 -3.489676 -1.603951 17.710341 0.633350 2.251576 -0.032411 -2.723366 3.244890 -8.123605 1.849469 -15.157898 6.171944 -1.810082 2.070361 1.530912 1.707537 1.754803 1.437157 -3.717636 -2.359244 5.531869 -3.789916 -3.217109 -7.944225 -0.083730 -2.620301 1.726442 -12.492496 -10.164952 -1.577829 -4.671083 17.676878 -1.476558 -7.067432 -6.724718 1.150173 0.047432 0.435207 0.206659 -5.737810 9.878049 -4.655260 17.343184 3.413519 -0.587758 -8.053589 -14.479694 -0.070703 -0.056460 0.454235 0.661213
-300.422405 92.324178 339.459482 137.072298 -0.586506 0.162851 -2.563869 5.250709 -1.251413 -0.089656 0.187815 -0.044466 -0.158417 0.331600 -0.078718 -2.470915 5.030692 -1.302803 -0.231198 18.047395 9.613862 -3.513125 -1.705958 17.744347 0.592246 2.249411 -0.052174 -2.821359 3.305626 -8.112741 1.874680 -15.249033 6.229574 -1.800893 2.089251 1.515716 1.758523 1.752263 1.483984 -3.622638 -2.115649 5.454411 -3.683867 -3.209923 -7.938468 -0.063833 -2.647312 1.737093 -12.684615 -10.409728 -1.491974 -4.667731 17.981359 -1.504574 -6.946231 -7.118549 1.056214 0.037280 0.412497 0.232892 -5.623093 9.851116 -4.603033 17.309321 3.389273 -0.620834 -8.342945 -14.793021 -0.234246 -0.051581 0.452656 0.661373
-300.255804 92.274742 339.254610 137.295171 -0.365944 0.181520 -2.614027 5.219368 -1.275573 -0.090983 0.186673 -0.044654 -0.160764 0.329592 -0.079055 -2.509104 5.004434 -1.310136 -0.240880 17.985412 9.627140 -3.543427 -1.817311 17.777457 0.547430 2.246538 -0.075541 -2.929412 3.377138 -8.100683 1.900230 -15.350599 6.292458 -1.782965 2.118535 1.499955 1.804126 1.752478 1.531066 -3.539635 -1.865180 5.382774 -3.577273 -3.197274 -7.938041 -0.041690 -2.672795 1.749768 -12.884953 -10.625670 -1.396052 -4.648512 18.263876 -1.536856 -6.805010 -7.491422 0.970540 0.026870 0.374219 0.247304 -5.498809 9.840952 -4.548088 17.264183 3.371886 -0.644933 -8.628532 -15.101254 -0.378833 -0.046063 0.432221 0.644725
-300.079949 92.222488 339.038532 137.528351 -0.145558 0.180386 -2.664185 5.188607 -1.280593 -0.092228 0.185824 -0.044753 -0.162963 0.328098 -0.079231 -2.543754 4.983453 -1.314351 -0.253560 17.917906 9.640175 -3.579940 -1.938415 17.811648 0.500578 2.245057 -0.098704 -3.048151 3.457152 -8.093123 1.929854 -15.463269 6.360441 -1.765486 2.154209 1.485014 1.843817 1.755205 1.577658 -3.466344 -1.613467 5.318188 -3.476981 -3.178647 -7.939816 -0.021045 -2.689644 1.760105 -13.092374 -10.814205 -1.280291 -4.614478 18.510920 -1.569857 -6.663588 -7.812073 0.898009 0.016368 0.304262 0.250075 -5.379407 9.836152 -4.477892 17.221312 3.355353 -0.659925 -8.913336 -15.362235 -0.498223 -0.040875 0.363259 0.608347
